<mxfile host="Electron" modified="2023-11-08T22:26:33.983Z" agent="Mozilla/5.0 (Macintosh; Intel Mac OS X 10_15_7) AppleWebKit/537.36 (KHTML, like Gecko) draw.io/22.0.3 Chrome/114.0.5735.289 Electron/25.8.4 Safari/537.36" etag="k2SWqyBjg7M589Z2gUPc" version="22.0.3" type="device">
  <diagram id="C5RBs43oDa-KdzZeNtuy" name="Page-1">
    <mxGraphModel dx="1266" dy="725" grid="1" gridSize="10" guides="1" tooltips="1" connect="1" arrows="1" fold="1" page="1" pageScale="1" pageWidth="1169" pageHeight="827" math="0" shadow="0">
      <root>
        <mxCell id="WIyWlLk6GJQsqaUBKTNV-0" />
        <mxCell id="rauAwiYpqjWbTV3UIn7z-162" value="toggles" parent="WIyWlLk6GJQsqaUBKTNV-0" />
        <UserObject label="Content" link="data:action/json,{&quot;actions&quot;:[{&quot;toggle&quot;:{&quot;cells&quot;:[&quot;layer-development-content-model&quot;]}}]}" id="rauAwiYpqjWbTV3UIn7z-171">
          <mxCell style="html=1;shadow=0;dashed=0;shape=mxgraph.bootstrap.rrect;rSize=5;strokeColor=#d79b00;strokeWidth=3;fillColor=#ffe6cc;whiteSpace=wrap;align=center;verticalAlign=middle;spacingLeft=0;fontStyle=1;fontSize=16;spacing=5;" parent="rauAwiYpqjWbTV3UIn7z-162" vertex="1">
            <mxGeometry x="900" y="361" width="80" height="30" as="geometry" />
          </mxCell>
        </UserObject>
        <UserObject label="Exchange" link="data:action/json,{&quot;actions&quot;:[{&quot;toggle&quot;:{&quot;cells&quot;:[&quot;layer-development-exchange&quot;]}}]}" id="rauAwiYpqjWbTV3UIn7z-172">
          <mxCell style="html=1;shadow=0;dashed=0;shape=mxgraph.bootstrap.rrect;rSize=5;strokeColor=#d79b00;strokeWidth=3;fillColor=#ffe6cc;whiteSpace=wrap;align=center;verticalAlign=middle;spacingLeft=0;fontStyle=1;fontSize=16;spacing=5;" parent="rauAwiYpqjWbTV3UIn7z-162" vertex="1">
            <mxGeometry x="991" y="361" width="80" height="30" as="geometry" />
          </mxCell>
        </UserObject>
        <UserObject label="Content" link="data:action/json,{&quot;actions&quot;:[{&quot;toggle&quot;:{&quot;cells&quot;:[&quot;layer-d2-content-model&quot;]}}]}" id="rauAwiYpqjWbTV3UIn7z-173">
          <mxCell style="html=1;shadow=0;dashed=0;shape=mxgraph.bootstrap.rrect;rSize=5;strokeColor=#6c8ebf;strokeWidth=3;fillColor=#dae8fc;whiteSpace=wrap;align=center;verticalAlign=middle;spacingLeft=0;fontStyle=1;fontSize=16;spacing=5;" parent="rauAwiYpqjWbTV3UIn7z-162" vertex="1">
            <mxGeometry x="900" y="433" width="80" height="30" as="geometry" />
          </mxCell>
        </UserObject>
        <UserObject label="Exchange" link="data:action/json,{&quot;actions&quot;:[{&quot;toggle&quot;:{&quot;cells&quot;:[&quot;layer-d2-exchange-model&quot;]}}]}" id="rauAwiYpqjWbTV3UIn7z-174">
          <mxCell style="html=1;shadow=0;dashed=0;shape=mxgraph.bootstrap.rrect;rSize=5;strokeColor=#82b366;strokeWidth=3;fillColor=#d5e8d4;whiteSpace=wrap;align=center;verticalAlign=middle;spacingLeft=0;fontStyle=1;fontSize=16;spacing=5;" parent="rauAwiYpqjWbTV3UIn7z-162" vertex="1">
            <mxGeometry x="990" y="433" width="80" height="30" as="geometry" />
          </mxCell>
        </UserObject>
        <UserObject label="System" link="data:action/json,{&quot;actions&quot;:[{&quot;toggle&quot;:{&quot;cells&quot;:[&quot;layer-system&quot;]}}]}" id="rauAwiYpqjWbTV3UIn7z-175">
          <mxCell style="html=1;shadow=0;dashed=0;shape=mxgraph.bootstrap.rrect;rSize=5;strokeColor=#666666;strokeWidth=3;fillColor=#f5f5f5;fontColor=#333333;whiteSpace=wrap;align=center;verticalAlign=middle;spacingLeft=0;fontStyle=1;fontSize=16;spacing=5;" parent="rauAwiYpqjWbTV3UIn7z-162" vertex="1">
            <mxGeometry x="900" y="289" width="170" height="30" as="geometry" />
          </mxCell>
        </UserObject>
        <UserObject label="Development" link="data:action/json,{&quot;actions&quot;:[{&quot;toggle&quot;:{&quot;cells&quot;:[&quot;layer-development&quot;]}}]}" id="rauAwiYpqjWbTV3UIn7z-179">
          <mxCell style="html=1;shadow=0;dashed=0;shape=mxgraph.bootstrap.rrect;rSize=5;strokeColor=#d79b00;strokeWidth=3;fillColor=#ffe6cc;whiteSpace=wrap;align=center;verticalAlign=middle;spacingLeft=0;fontStyle=1;fontSize=16;spacing=5;" parent="rauAwiYpqjWbTV3UIn7z-162" vertex="1">
            <mxGeometry x="900" y="325" width="170" height="30" as="geometry" />
          </mxCell>
        </UserObject>
        <UserObject label="DATEX II Model" link="data:action/json,{&quot;actions&quot;:[{&quot;toggle&quot;:{&quot;cells&quot;:[&quot;layer-d2-message-model&quot;]}}]}" id="rauAwiYpqjWbTV3UIn7z-223">
          <mxCell style="html=1;shadow=0;dashed=0;shape=mxgraph.bootstrap.rrect;rSize=5;strokeWidth=0;whiteSpace=wrap;align=center;verticalAlign=middle;spacingLeft=0;fontStyle=0;fontSize=16;spacing=5;" parent="rauAwiYpqjWbTV3UIn7z-162" vertex="1">
            <mxGeometry x="900" y="399" width="170" height="30" as="geometry" />
          </mxCell>
        </UserObject>
        <mxCell id="WIyWlLk6GJQsqaUBKTNV-1" parent="WIyWlLk6GJQsqaUBKTNV-0" />
        <mxCell id="o9iVThBNC2FBeBt6BdoM-118" style="edgeStyle=none;rounded=0;orthogonalLoop=1;jettySize=auto;html=1;exitX=0.5;exitY=1;exitDx=0;exitDy=0;exitPerimeter=0;" parent="WIyWlLk6GJQsqaUBKTNV-1" edge="1">
          <mxGeometry relative="1" as="geometry">
            <mxPoint x="607.0000000000002" y="501.25" as="sourcePoint" />
            <mxPoint x="607.0000000000002" y="501.25" as="targetPoint" />
          </mxGeometry>
        </mxCell>
        <mxCell id="rauAwiYpqjWbTV3UIn7z-62" style="edgeStyle=orthogonalEdgeStyle;rounded=0;orthogonalLoop=1;jettySize=auto;html=1;exitX=0.5;exitY=1;exitDx=0;exitDy=0;exitPerimeter=0;entryX=0.5;entryY=0;entryDx=0;entryDy=0;entryPerimeter=0;dashed=1;" parent="WIyWlLk6GJQsqaUBKTNV-1" edge="1">
          <mxGeometry relative="1" as="geometry">
            <mxPoint x="602.0000000000002" y="282" as="targetPoint" />
          </mxGeometry>
        </mxCell>
        <object label="d2-exchange-model" id="layer-d2-exchange-model">
          <mxCell parent="WIyWlLk6GJQsqaUBKTNV-0" />
        </object>
        <mxCell id="rauAwiYpqjWbTV3UIn7z-155" value="DATEX II Exchange Model" style="swimlane;html=1;childLayout=stackLayout;resizeParent=1;resizeParentMax=0;horizontal=1;startSize=20;horizontalStack=0;whiteSpace=wrap;flipV=1;flipH=0;fillColor=#d5e8d4;strokeColor=#82b366;" parent="layer-d2-exchange-model" vertex="1">
          <mxGeometry x="520" y="521" width="190" height="140" as="geometry">
            <mxRectangle x="-410" y="343" width="190" height="30" as="alternateBounds" />
          </mxGeometry>
        </mxCell>
        <mxCell id="rauAwiYpqjWbTV3UIn7z-156" value="PSM" style="swimlane;html=1;startSize=20;horizontal=0;flipH=1;fillColor=#d5e8d4;strokeColor=#82b366;" parent="rauAwiYpqjWbTV3UIn7z-155" vertex="1">
          <mxGeometry y="20" width="190" height="70" as="geometry" />
        </mxCell>
        <mxCell id="rauAwiYpqjWbTV3UIn7z-157" value="PIM" style="swimlane;html=1;startSize=20;horizontal=0;flipH=1;fillColor=#d5e8d4;strokeColor=#82b366;" parent="rauAwiYpqjWbTV3UIn7z-155" vertex="1">
          <mxGeometry y="90" width="190" height="50" as="geometry" />
        </mxCell>
        <UserObject label="Exchange" link="data:action/json,{&quot;actions&quot;:[{&quot;toggle&quot;:{&quot;cells&quot;:[&quot;layer-d2-exchange-model&quot;]}}]}" id="rauAwiYpqjWbTV3UIn7z-188">
          <mxCell style="html=1;shadow=0;dashed=0;shape=mxgraph.bootstrap.rrect;rSize=5;strokeColor=#82b366;strokeWidth=1;fillColor=#d5e8d4;whiteSpace=wrap;align=center;verticalAlign=middle;spacingLeft=0;fontStyle=0;fontSize=16;spacing=5;" parent="layer-d2-exchange-model" vertex="1">
            <mxGeometry x="990" y="433" width="80" height="30" as="geometry" />
          </mxCell>
        </UserObject>
        <mxCell id="rauAwiYpqjWbTV3UIn7z-224" value="&lt;b&gt;Exchange Platforms&lt;/b&gt;:&lt;br&gt;- WSDL&lt;br&gt;- OpenAPI" style="text;html=1;align=left;verticalAlign=middle;resizable=0;points=[];autosize=1;strokeColor=none;fillColor=none;" parent="layer-d2-exchange-model" vertex="1">
          <mxGeometry x="721" y="479" width="140" height="60" as="geometry" />
        </mxCell>
        <mxCell id="rauAwiYpqjWbTV3UIn7z-225" value="Platform Independent&lt;br&gt;Model" style="text;html=1;align=left;verticalAlign=middle;resizable=0;points=[];autosize=1;strokeColor=none;fillColor=none;" parent="layer-d2-exchange-model" vertex="1">
          <mxGeometry x="720" y="610" width="140" height="40" as="geometry" />
        </mxCell>
        <mxCell id="rauAwiYpqjWbTV3UIn7z-226" value="Platform&amp;nbsp;Specific&lt;br&gt;Model" style="text;html=1;align=left;verticalAlign=middle;resizable=0;points=[];autosize=1;strokeColor=none;fillColor=none;" parent="layer-d2-exchange-model" vertex="1">
          <mxGeometry x="720" y="540" width="110" height="40" as="geometry" />
        </mxCell>
        <object label="d2-content-model" id="layer-d2-content-model">
          <mxCell parent="WIyWlLk6GJQsqaUBKTNV-0" />
        </object>
        <mxCell id="rauAwiYpqjWbTV3UIn7z-125" value="&lt;b&gt;Content Platforms&lt;/b&gt;:&lt;br&gt;- XML&lt;br&gt;- JSON&lt;br&gt;- ASN.1 (experimental)" style="text;html=1;align=left;verticalAlign=middle;resizable=0;points=[];autosize=1;strokeColor=none;fillColor=none;" parent="layer-d2-content-model" vertex="1">
          <mxGeometry x="720" y="253" width="140" height="70" as="geometry" />
        </mxCell>
        <mxCell id="rauAwiYpqjWbTV3UIn7z-126" value="" style="group;flipH=1;fillColor=none;strokeColor=#6c8ebf;" parent="layer-d2-content-model" vertex="1" connectable="0">
          <mxGeometry x="521" y="107" width="190" height="160" as="geometry" />
        </mxCell>
        <mxCell id="rauAwiYpqjWbTV3UIn7z-127" value="DATEX II Content Model" style="swimlane;childLayout=stackLayout;resizeParent=1;resizeParentMax=0;horizontal=1;startSize=20;horizontalStack=0;html=1;fillColor=#dae8fc;strokeColor=#6c8ebf;" parent="rauAwiYpqjWbTV3UIn7z-126" vertex="1">
          <mxGeometry width="190.00000000000003" height="70" as="geometry" />
        </mxCell>
        <mxCell id="rauAwiYpqjWbTV3UIn7z-128" value="PSM" style="swimlane;startSize=20;horizontal=0;html=1;flipH=1;fillColor=#dae8fc;strokeColor=#6c8ebf;" parent="rauAwiYpqjWbTV3UIn7z-126" vertex="1">
          <mxGeometry y="70" width="190.00000000000003" height="90" as="geometry" />
        </mxCell>
        <mxCell id="rauAwiYpqjWbTV3UIn7z-129" value="PIM" style="swimlane;startSize=20;horizontal=0;html=1;flipH=1;fillColor=#dae8fc;strokeColor=#6c8ebf;" parent="rauAwiYpqjWbTV3UIn7z-126" vertex="1">
          <mxGeometry y="20" width="190.00000000000003" height="50" as="geometry">
            <mxRectangle y="20" width="480" height="30" as="alternateBounds" />
          </mxGeometry>
        </mxCell>
        <UserObject label="Content" link="data:action/json,{&quot;actions&quot;:[{&quot;toggle&quot;:{&quot;cells&quot;:[&quot;layer-d2-content-model&quot;]}}]}" id="rauAwiYpqjWbTV3UIn7z-186">
          <mxCell style="html=1;shadow=0;dashed=0;shape=mxgraph.bootstrap.rrect;rSize=5;strokeColor=#6c8ebf;strokeWidth=0;fillColor=#dae8fc;whiteSpace=wrap;align=center;verticalAlign=middle;spacingLeft=0;fontStyle=0;fontSize=16;spacing=5;" parent="layer-d2-content-model" vertex="1">
            <mxGeometry x="900" y="433" width="80" height="30" as="geometry" />
          </mxCell>
        </UserObject>
        <mxCell id="rauAwiYpqjWbTV3UIn7z-227" value="Platform&amp;nbsp;Specific&lt;br&gt;Model" style="text;html=1;align=left;verticalAlign=middle;resizable=0;points=[];autosize=1;strokeColor=none;fillColor=none;" parent="layer-d2-content-model" vertex="1">
          <mxGeometry x="720" y="180" width="110" height="40" as="geometry" />
        </mxCell>
        <mxCell id="rauAwiYpqjWbTV3UIn7z-228" value="Platform Independent&lt;br&gt;Model" style="text;html=1;align=left;verticalAlign=middle;resizable=0;points=[];autosize=1;strokeColor=none;fillColor=none;" parent="layer-d2-content-model" vertex="1">
          <mxGeometry x="720" y="123" width="140" height="40" as="geometry" />
        </mxCell>
        <object label="development-exchange" id="layer-development-exchange">
          <mxCell parent="WIyWlLk6GJQsqaUBKTNV-0" />
        </object>
        <mxCell id="rauAwiYpqjWbTV3UIn7z-132" style="edgeStyle=none;rounded=0;orthogonalLoop=1;jettySize=auto;html=1;entryX=0.5;entryY=1;entryDx=0;entryDy=0;exitX=0;exitY=0.5;exitDx=0;exitDy=0;exitPerimeter=0;dashed=1;" parent="layer-development-exchange" source="rauAwiYpqjWbTV3UIn7z-133" edge="1">
          <mxGeometry relative="1" as="geometry">
            <Array as="points" />
            <mxPoint x="482" y="440" as="targetPoint" />
          </mxGeometry>
        </mxCell>
        <mxCell id="rauAwiYpqjWbTV3UIn7z-133" value="Code&lt;br&gt;Generator" style="strokeWidth=2;html=1;shape=mxgraph.flowchart.terminator;whiteSpace=wrap;" parent="layer-development-exchange" vertex="1">
          <mxGeometry x="567" y="468.75" width="80" height="32.5" as="geometry" />
        </mxCell>
        <mxCell id="rauAwiYpqjWbTV3UIn7z-134" style="edgeStyle=none;rounded=0;orthogonalLoop=1;jettySize=auto;html=1;entryX=0.5;entryY=1;entryDx=0;entryDy=0;exitX=1;exitY=0.5;exitDx=0;exitDy=0;exitPerimeter=0;dashed=1;" parent="layer-development-exchange" source="rauAwiYpqjWbTV3UIn7z-133" edge="1">
          <mxGeometry relative="1" as="geometry">
            <Array as="points" />
            <mxPoint x="722" y="440" as="targetPoint" />
          </mxGeometry>
        </mxCell>
        <mxCell id="rauAwiYpqjWbTV3UIn7z-135" value="WSDL" style="whiteSpace=wrap;html=1;shape=mxgraph.basic.document;fillColor=#d5e8d4;strokeColor=#82b366;" parent="layer-development-exchange" vertex="1">
          <mxGeometry x="530" y="551" width="154.24" height="22" as="geometry" />
        </mxCell>
        <mxCell id="rauAwiYpqjWbTV3UIn7z-136" value="OpenAPI" style="whiteSpace=wrap;html=1;shape=mxgraph.basic.document;fillColor=#d5e8d4;strokeColor=#82b366;" parent="layer-development-exchange" vertex="1">
          <mxGeometry x="530" y="576" width="154.24" height="22" as="geometry" />
        </mxCell>
        <mxCell id="rauAwiYpqjWbTV3UIn7z-137" value="" style="edgeStyle=orthogonalEdgeStyle;rounded=0;orthogonalLoop=1;jettySize=auto;html=1;entryX=0;entryY=0.5;entryDx=0;entryDy=0;entryPerimeter=0;dashed=1;" parent="layer-development-exchange" target="rauAwiYpqjWbTV3UIn7z-135" edge="1">
          <mxGeometry relative="1" as="geometry">
            <mxPoint x="470" y="562" as="sourcePoint" />
          </mxGeometry>
        </mxCell>
        <mxCell id="rauAwiYpqjWbTV3UIn7z-138" style="rounded=0;orthogonalLoop=1;jettySize=auto;html=1;entryX=0;entryY=0.5;entryDx=0;entryDy=0;entryPerimeter=0;dashed=1;" parent="layer-development-exchange" target="rauAwiYpqjWbTV3UIn7z-136" edge="1">
          <mxGeometry relative="1" as="geometry">
            <mxPoint x="470" y="575.4615384615383" as="sourcePoint" />
          </mxGeometry>
        </mxCell>
        <mxCell id="rauAwiYpqjWbTV3UIn7z-139" value="" style="edgeStyle=orthogonalEdgeStyle;rounded=0;orthogonalLoop=1;jettySize=auto;html=1;" parent="layer-development-exchange" edge="1">
          <mxGeometry relative="1" as="geometry">
            <mxPoint x="399.9999999999998" y="478" as="sourcePoint" />
            <mxPoint x="400" y="441" as="targetPoint" />
          </mxGeometry>
        </mxCell>
        <mxCell id="rauAwiYpqjWbTV3UIn7z-140" value="etc." style="edgeLabel;html=1;align=center;verticalAlign=middle;resizable=0;points=[];" parent="rauAwiYpqjWbTV3UIn7z-139" vertex="1" connectable="0">
          <mxGeometry x="-0.3318" relative="1" as="geometry">
            <mxPoint y="-10" as="offset" />
          </mxGeometry>
        </mxCell>
        <mxCell id="rauAwiYpqjWbTV3UIn7z-141" value="PULL" style="whiteSpace=wrap;html=1;shape=mxgraph.basic.document;fillColor=#d5e8d4;strokeColor=#82b366;" parent="layer-development-exchange" vertex="1">
          <mxGeometry x="530" y="615" width="154.24" height="22" as="geometry" />
        </mxCell>
        <mxCell id="rauAwiYpqjWbTV3UIn7z-142" style="rounded=0;orthogonalLoop=1;jettySize=auto;html=1;exitX=0.5;exitY=0;exitDx=0;exitDy=0;exitPerimeter=0;entryX=0.5;entryY=1;entryDx=0;entryDy=0;entryPerimeter=0;dashed=1;" parent="layer-development-exchange" source="rauAwiYpqjWbTV3UIn7z-135" target="rauAwiYpqjWbTV3UIn7z-133" edge="1">
          <mxGeometry relative="1" as="geometry" />
        </mxCell>
        <mxCell id="rauAwiYpqjWbTV3UIn7z-143" value="" style="edgeStyle=orthogonalEdgeStyle;rounded=0;orthogonalLoop=1;jettySize=auto;html=1;dashed=1;" parent="layer-development-exchange" target="rauAwiYpqjWbTV3UIn7z-141" edge="1">
          <mxGeometry relative="1" as="geometry">
            <mxPoint x="470" y="626" as="sourcePoint" />
          </mxGeometry>
        </mxCell>
        <mxCell id="rauAwiYpqjWbTV3UIn7z-144" style="edgeStyle=orthogonalEdgeStyle;rounded=0;orthogonalLoop=1;jettySize=auto;html=1;entryX=0.5;entryY=1;entryDx=0;entryDy=0;entryPerimeter=0;dashed=1;" parent="layer-development-exchange" source="rauAwiYpqjWbTV3UIn7z-141" target="rauAwiYpqjWbTV3UIn7z-136" edge="1">
          <mxGeometry relative="1" as="geometry" />
        </mxCell>
        <mxCell id="rauAwiYpqjWbTV3UIn7z-145" value="" style="edgeStyle=orthogonalEdgeStyle;rounded=0;orthogonalLoop=1;jettySize=auto;html=1;" parent="layer-development-exchange" source="rauAwiYpqjWbTV3UIn7z-146" target="rauAwiYpqjWbTV3UIn7z-151" edge="1">
          <mxGeometry relative="1" as="geometry" />
        </mxCell>
        <mxCell id="rauAwiYpqjWbTV3UIn7z-146" value="" style="ellipse;whiteSpace=wrap;html=1;aspect=fixed;fillColor=#ffe6cc;strokeColor=#d79b00;" parent="layer-development-exchange" vertex="1">
          <mxGeometry x="395.5" y="661" width="9" height="9" as="geometry" />
        </mxCell>
        <mxCell id="rauAwiYpqjWbTV3UIn7z-147" value="Implement&lt;br&gt;Specific API" style="rounded=0;whiteSpace=wrap;html=1;fillColor=#ffe6cc;strokeColor=#d79b00;" parent="layer-development-exchange" vertex="1">
          <mxGeometry x="330" y="478" width="140" height="30" as="geometry" />
        </mxCell>
        <mxCell id="rauAwiYpqjWbTV3UIn7z-148" value="Propose Specific Exchange Implementation" style="rounded=0;whiteSpace=wrap;html=1;fillColor=#ffe6cc;strokeColor=#d79b00;" parent="layer-development-exchange" vertex="1">
          <mxGeometry x="330" y="537" width="140" height="50" as="geometry" />
        </mxCell>
        <mxCell id="rauAwiYpqjWbTV3UIn7z-149" style="edgeStyle=none;rounded=0;orthogonalLoop=1;jettySize=auto;html=1;exitX=0.5;exitY=0;exitDx=0;exitDy=0;entryX=0.5;entryY=1;entryDx=0;entryDy=0;" parent="layer-development-exchange" source="rauAwiYpqjWbTV3UIn7z-148" target="rauAwiYpqjWbTV3UIn7z-147" edge="1">
          <mxGeometry relative="1" as="geometry" />
        </mxCell>
        <mxCell id="rauAwiYpqjWbTV3UIn7z-150" value="" style="edgeStyle=none;rounded=0;orthogonalLoop=1;jettySize=auto;html=1;" parent="layer-development-exchange" source="rauAwiYpqjWbTV3UIn7z-151" target="rauAwiYpqjWbTV3UIn7z-148" edge="1">
          <mxGeometry relative="1" as="geometry" />
        </mxCell>
        <mxCell id="rauAwiYpqjWbTV3UIn7z-151" value="Propose General Rules&lt;br&gt;for Data Exchange" style="rounded=0;whiteSpace=wrap;html=1;fillColor=#ffe6cc;strokeColor=#d79b00;" parent="layer-development-exchange" vertex="1">
          <mxGeometry x="330" y="608" width="140" height="36" as="geometry" />
        </mxCell>
        <UserObject label="Exchange" link="data:action/json,{&quot;actions&quot;:[{&quot;toggle&quot;:{&quot;cells&quot;:[&quot;layer-development-exchange&quot;]}}]}" id="rauAwiYpqjWbTV3UIn7z-184">
          <mxCell style="html=1;shadow=0;dashed=0;shape=mxgraph.bootstrap.rrect;rSize=5;strokeColor=#d79b00;strokeWidth=1;fillColor=#ffe6cc;whiteSpace=wrap;align=center;verticalAlign=middle;spacingLeft=0;fontStyle=0;fontSize=16;spacing=5;" parent="layer-development-exchange" vertex="1">
            <mxGeometry x="991" y="361" width="80" height="30" as="geometry" />
          </mxCell>
        </UserObject>
        <object label="development-content-model" id="layer-development-content-model">
          <mxCell parent="WIyWlLk6GJQsqaUBKTNV-0" />
        </object>
        <mxCell id="rauAwiYpqjWbTV3UIn7z-106" style="edgeStyle=none;rounded=0;orthogonalLoop=1;jettySize=auto;html=1;dashed=1;entryX=0.472;entryY=0.042;entryDx=0;entryDy=0;entryPerimeter=0;exitX=1;exitY=0.5;exitDx=0;exitDy=0;exitPerimeter=0;" parent="layer-development-content-model" source="rauAwiYpqjWbTV3UIn7z-108" edge="1">
          <mxGeometry relative="1" as="geometry">
            <Array as="points" />
            <mxPoint x="719.4800000000002" y="401.68000000000006" as="targetPoint" />
          </mxGeometry>
        </mxCell>
        <mxCell id="rauAwiYpqjWbTV3UIn7z-107" style="edgeStyle=none;rounded=0;orthogonalLoop=1;jettySize=auto;html=1;dashed=1;entryX=0.5;entryY=0;entryDx=0;entryDy=0;exitX=0;exitY=0.5;exitDx=0;exitDy=0;exitPerimeter=0;" parent="layer-development-content-model" source="rauAwiYpqjWbTV3UIn7z-108" edge="1">
          <mxGeometry relative="1" as="geometry">
            <Array as="points" />
            <mxPoint x="482" y="400.0000000000001" as="targetPoint" />
          </mxGeometry>
        </mxCell>
        <mxCell id="rauAwiYpqjWbTV3UIn7z-108" value="Code&lt;br&gt;Generator" style="strokeWidth=2;html=1;shape=mxgraph.flowchart.terminator;whiteSpace=wrap;" parent="layer-development-content-model" vertex="1">
          <mxGeometry x="566" y="282" width="80" height="35" as="geometry" />
        </mxCell>
        <mxCell id="rauAwiYpqjWbTV3UIn7z-109" value="JSON Schema Draft 4" style="whiteSpace=wrap;html=1;shape=mxgraph.basic.document;fillColor=#dae8fc;strokeColor=#6c8ebf;" parent="layer-development-content-model" vertex="1">
          <mxGeometry x="526.76" y="190" width="154.24" height="32" as="geometry" />
        </mxCell>
        <mxCell id="rauAwiYpqjWbTV3UIn7z-110" value="W3C XML Schema v1.0" style="whiteSpace=wrap;html=1;shape=mxgraph.basic.document;fillColor=#dae8fc;strokeColor=#6c8ebf;" parent="layer-development-content-model" vertex="1">
          <mxGeometry x="526.76" y="227" width="154.24" height="32" as="geometry" />
        </mxCell>
        <mxCell id="rauAwiYpqjWbTV3UIn7z-111" value="" style="edgeStyle=orthogonalEdgeStyle;rounded=0;orthogonalLoop=1;jettySize=auto;html=1;dashed=1;" parent="layer-development-content-model" source="rauAwiYpqjWbTV3UIn7z-112" edge="1">
          <mxGeometry relative="1" as="geometry">
            <mxPoint x="604" y="190" as="targetPoint" />
          </mxGeometry>
        </mxCell>
        <mxCell id="rauAwiYpqjWbTV3UIn7z-112" value="UML Class Model" style="whiteSpace=wrap;html=1;shape=mxgraph.basic.document;fillColor=#dae8fc;strokeColor=#6c8ebf;" parent="layer-development-content-model" vertex="1">
          <mxGeometry x="526.76" y="141" width="154.24" height="22" as="geometry" />
        </mxCell>
        <mxCell id="rauAwiYpqjWbTV3UIn7z-113" style="edgeStyle=none;rounded=0;orthogonalLoop=1;jettySize=auto;html=1;" parent="layer-development-content-model" target="rauAwiYpqjWbTV3UIn7z-114" edge="1">
          <mxGeometry relative="1" as="geometry">
            <mxPoint x="399" y="119" as="sourcePoint" />
          </mxGeometry>
        </mxCell>
        <mxCell id="rauAwiYpqjWbTV3UIn7z-114" value="Model the Content" style="rounded=0;whiteSpace=wrap;html=1;fillColor=#ffe6cc;strokeColor=#d79b00;" parent="layer-development-content-model" vertex="1">
          <mxGeometry x="330" y="137" width="140" height="30" as="geometry" />
        </mxCell>
        <mxCell id="rauAwiYpqjWbTV3UIn7z-115" value="" style="edgeStyle=orthogonalEdgeStyle;rounded=0;orthogonalLoop=1;jettySize=auto;html=1;" parent="layer-development-content-model" source="rauAwiYpqjWbTV3UIn7z-116" target="rauAwiYpqjWbTV3UIn7z-119" edge="1">
          <mxGeometry relative="1" as="geometry" />
        </mxCell>
        <mxCell id="rauAwiYpqjWbTV3UIn7z-116" value="Propose Content Encoding/Decoding" style="rounded=0;whiteSpace=wrap;html=1;fillColor=#ffe6cc;strokeColor=#d79b00;" parent="layer-development-content-model" vertex="1">
          <mxGeometry x="330" y="188" width="140" height="40" as="geometry" />
        </mxCell>
        <mxCell id="rauAwiYpqjWbTV3UIn7z-117" style="edgeStyle=orthogonalEdgeStyle;rounded=0;orthogonalLoop=1;jettySize=auto;html=1;exitX=0.5;exitY=1;exitDx=0;exitDy=0;" parent="layer-development-content-model" source="rauAwiYpqjWbTV3UIn7z-116" target="rauAwiYpqjWbTV3UIn7z-116" edge="1">
          <mxGeometry relative="1" as="geometry" />
        </mxCell>
        <mxCell id="rauAwiYpqjWbTV3UIn7z-118" style="edgeStyle=none;rounded=0;orthogonalLoop=1;jettySize=auto;html=1;entryX=0.5;entryY=0;entryDx=0;entryDy=0;" parent="layer-development-content-model" source="rauAwiYpqjWbTV3UIn7z-114" target="rauAwiYpqjWbTV3UIn7z-116" edge="1">
          <mxGeometry relative="1" as="geometry" />
        </mxCell>
        <mxCell id="rauAwiYpqjWbTV3UIn7z-119" value="Implement Content&lt;br&gt;Encoding/Decoding" style="rounded=0;whiteSpace=wrap;html=1;fillColor=#ffe6cc;strokeColor=#d79b00;" parent="layer-development-content-model" vertex="1">
          <mxGeometry x="330" y="267" width="140" height="40" as="geometry" />
        </mxCell>
        <mxCell id="rauAwiYpqjWbTV3UIn7z-120" style="edgeStyle=none;rounded=0;orthogonalLoop=1;jettySize=auto;html=1;entryX=0.003;entryY=0.538;entryDx=0;entryDy=0;entryPerimeter=0;dashed=1;" parent="layer-development-content-model" edge="1">
          <mxGeometry relative="1" as="geometry">
            <mxPoint x="470" y="207.5686305087645" as="sourcePoint" />
            <mxPoint x="527.22272" y="207.216" as="targetPoint" />
          </mxGeometry>
        </mxCell>
        <mxCell id="rauAwiYpqjWbTV3UIn7z-121" value="" style="rounded=0;orthogonalLoop=1;jettySize=auto;html=1;entryX=0;entryY=0.5;entryDx=0;entryDy=0;entryPerimeter=0;dashed=1;" parent="layer-development-content-model" edge="1">
          <mxGeometry relative="1" as="geometry">
            <mxPoint x="470" y="227.3278636793941" as="sourcePoint" />
            <mxPoint x="526.76" y="243" as="targetPoint" />
          </mxGeometry>
        </mxCell>
        <mxCell id="rauAwiYpqjWbTV3UIn7z-122" value="" style="edgeStyle=orthogonalEdgeStyle;rounded=0;orthogonalLoop=1;jettySize=auto;html=1;dashed=1;" parent="layer-development-content-model" edge="1">
          <mxGeometry relative="1" as="geometry">
            <mxPoint x="470" y="152" as="sourcePoint" />
            <mxPoint x="526.76" y="152" as="targetPoint" />
          </mxGeometry>
        </mxCell>
        <mxCell id="rauAwiYpqjWbTV3UIn7z-123" value="etc." style="edgeStyle=none;rounded=0;orthogonalLoop=1;jettySize=auto;html=1;exitX=0.5;exitY=1;exitDx=0;exitDy=0;" parent="layer-development-content-model" edge="1">
          <mxGeometry x="0.0625" relative="1" as="geometry">
            <mxPoint x="400" y="307" as="sourcePoint" />
            <mxPoint x="400" y="371" as="targetPoint" />
            <mxPoint as="offset" />
          </mxGeometry>
        </mxCell>
        <mxCell id="rauAwiYpqjWbTV3UIn7z-124" value="" style="ellipse;whiteSpace=wrap;html=1;aspect=fixed;fillColor=#ffe6cc;strokeColor=#d79b00;" parent="layer-development-content-model" vertex="1">
          <mxGeometry x="395" y="110" width="9" height="9" as="geometry" />
        </mxCell>
        <mxCell id="rauAwiYpqjWbTV3UIn7z-161" value="" style="rounded=0;orthogonalLoop=1;jettySize=auto;html=1;" parent="layer-development-content-model" edge="1">
          <mxGeometry relative="1" as="geometry">
            <mxPoint x="604" y="259" as="sourcePoint" />
            <mxPoint x="605" y="282" as="targetPoint" />
          </mxGeometry>
        </mxCell>
        <UserObject label="Content" link="data:action/json,{&quot;actions&quot;:[{&quot;toggle&quot;:{&quot;cells&quot;:[&quot;layer-development-content-model&quot;]}}]}" id="rauAwiYpqjWbTV3UIn7z-182">
          <mxCell style="html=1;shadow=0;dashed=0;shape=mxgraph.bootstrap.rrect;rSize=5;strokeColor=#d79b00;strokeWidth=1;fillColor=#ffe6cc;whiteSpace=wrap;align=center;verticalAlign=middle;spacingLeft=0;fontStyle=0;fontSize=16;spacing=5;" parent="layer-development-content-model" vertex="1">
            <mxGeometry x="900" y="361" width="80" height="30" as="geometry" />
          </mxCell>
        </UserObject>
        <object label="development" id="layer-development">
          <mxCell parent="WIyWlLk6GJQsqaUBKTNV-0" />
        </object>
        <mxCell id="rauAwiYpqjWbTV3UIn7z-88" value="Software Development Workflow" style="swimlane;horizontal=0;whiteSpace=wrap;html=1;fillColor=#ffe6cc;strokeColor=#d79b00;" parent="layer-development" vertex="1">
          <mxGeometry x="287" y="100" width="603" height="580" as="geometry" />
        </mxCell>
        <mxCell id="rauAwiYpqjWbTV3UIn7z-98" style="edgeStyle=none;rounded=0;orthogonalLoop=1;jettySize=auto;html=1;exitX=0.5;exitY=1;exitDx=0;exitDy=0;" parent="rauAwiYpqjWbTV3UIn7z-88" edge="1">
          <mxGeometry relative="1" as="geometry">
            <mxPoint x="99.99999999999989" y="261" as="sourcePoint" />
            <mxPoint x="99.99999999999989" y="261" as="targetPoint" />
          </mxGeometry>
        </mxCell>
        <mxCell id="rauAwiYpqjWbTV3UIn7z-101" style="edgeStyle=orthogonalEdgeStyle;rounded=0;orthogonalLoop=1;jettySize=auto;html=1;exitX=0.5;exitY=1;exitDx=0;exitDy=0;" parent="rauAwiYpqjWbTV3UIn7z-88" edge="1">
          <mxGeometry relative="1" as="geometry">
            <mxPoint x="113" y="487" as="sourcePoint" />
            <mxPoint x="113" y="487" as="targetPoint" />
          </mxGeometry>
        </mxCell>
        <UserObject label="Development" link="data:action/json,{&quot;actions&quot;:[{&quot;toggle&quot;:{&quot;cells&quot;:[&quot;layer-development&quot;]}}]}" id="rauAwiYpqjWbTV3UIn7z-180">
          <mxCell style="html=1;shadow=0;dashed=0;shape=mxgraph.bootstrap.rrect;rSize=5;strokeColor=#d79b00;strokeWidth=1;fillColor=#ffe6cc;whiteSpace=wrap;align=center;verticalAlign=middle;spacingLeft=0;fontStyle=0;fontSize=16;spacing=5;" parent="layer-development" vertex="1">
            <mxGeometry x="900" y="325" width="170" height="30" as="geometry" />
          </mxCell>
        </UserObject>
        <object label="system" id="layer-system">
          <mxCell parent="WIyWlLk6GJQsqaUBKTNV-0" />
        </object>
        <UserObject label="System" link="data:action/json,{&quot;actions&quot;:[{&quot;toggle&quot;:{&quot;cells&quot;:[&quot;layer-system&quot;]}}]}" id="rauAwiYpqjWbTV3UIn7z-177">
          <mxCell style="html=1;shadow=0;dashed=0;shape=mxgraph.bootstrap.rrect;rSize=5;strokeColor=#666666;strokeWidth=1;fillColor=#f5f5f5;fontColor=#333333;whiteSpace=wrap;align=center;verticalAlign=middle;spacingLeft=0;fontStyle=0;fontSize=16;spacing=5;" parent="layer-system" vertex="1">
            <mxGeometry x="900" y="289" width="170" height="30" as="geometry" />
          </mxCell>
        </UserObject>
        <mxCell id="rauAwiYpqjWbTV3UIn7z-75" value="Real Implementation of&lt;br&gt;Data Exchange System (PULL)" style="swimlane;whiteSpace=wrap;html=1;fillColor=#f5f5f5;strokeColor=#666666;swimlaneFillColor=none;strokeWidth=4;glass=0;fontColor=#333333;startSize=34;" parent="layer-system" vertex="1">
          <mxGeometry x="327" y="323" width="550" height="140" as="geometry" />
        </mxCell>
        <mxCell id="rauAwiYpqjWbTV3UIn7z-76" value="" style="edgeStyle=none;rounded=0;orthogonalLoop=1;jettySize=auto;html=1;" parent="rauAwiYpqjWbTV3UIn7z-75" target="rauAwiYpqjWbTV3UIn7z-87" edge="1">
          <mxGeometry relative="1" as="geometry">
            <mxPoint x="210" y="91" as="sourcePoint" />
            <Array as="points">
              <mxPoint x="230" y="101" />
            </Array>
          </mxGeometry>
        </mxCell>
        <mxCell id="rauAwiYpqjWbTV3UIn7z-77" value="Server" style="swimlane;whiteSpace=wrap;html=1;fillColor=#f5f5f5;strokeColor=#666666;shadow=0;noLabel=0;labelBackgroundColor=none;labelBorderColor=none;strokeWidth=3;fontColor=#333333;" parent="rauAwiYpqjWbTV3UIn7z-75" vertex="1">
          <mxGeometry x="100" y="42" width="110" height="90" as="geometry" />
        </mxCell>
        <mxCell id="rauAwiYpqjWbTV3UIn7z-78" value="&lt;br&gt;code" style="shape=internalStorage;whiteSpace=wrap;html=1;dx=15;dy=15;rounded=1;arcSize=8;strokeWidth=2;fillColor=#f5f5f5;strokeColor=#666666;fontColor=#333333;" parent="rauAwiYpqjWbTV3UIn7z-77" vertex="1">
          <mxGeometry x="10" y="35" width="90" height="40" as="geometry" />
        </mxCell>
        <mxCell id="rauAwiYpqjWbTV3UIn7z-79" value="request" style="edgeStyle=none;rounded=0;orthogonalLoop=1;jettySize=auto;html=1;" parent="rauAwiYpqjWbTV3UIn7z-75" edge="1">
          <mxGeometry relative="1" as="geometry">
            <mxPoint x="340" y="72" as="sourcePoint" />
            <mxPoint x="210" y="72" as="targetPoint" />
            <Array as="points">
              <mxPoint x="320" y="62" />
              <mxPoint x="230" y="62" />
            </Array>
          </mxGeometry>
        </mxCell>
        <mxCell id="rauAwiYpqjWbTV3UIn7z-80" value="" style="edgeStyle=orthogonalEdgeStyle;rounded=0;orthogonalLoop=1;jettySize=auto;html=1;" parent="rauAwiYpqjWbTV3UIn7z-75" source="rauAwiYpqjWbTV3UIn7z-81" target="rauAwiYpqjWbTV3UIn7z-85" edge="1">
          <mxGeometry relative="1" as="geometry" />
        </mxCell>
        <mxCell id="rauAwiYpqjWbTV3UIn7z-81" value="Client" style="swimlane;whiteSpace=wrap;html=1;fillColor=#f5f5f5;strokeColor=#666666;shadow=0;noLabel=0;labelBackgroundColor=none;labelBorderColor=none;strokeWidth=3;fontColor=#333333;" parent="rauAwiYpqjWbTV3UIn7z-75" vertex="1">
          <mxGeometry x="340" y="42" width="110" height="90" as="geometry" />
        </mxCell>
        <mxCell id="rauAwiYpqjWbTV3UIn7z-82" value="&lt;br&gt;code" style="shape=internalStorage;whiteSpace=wrap;html=1;dx=15;dy=15;rounded=1;arcSize=8;strokeWidth=2;fillColor=#f5f5f5;strokeColor=#666666;fontColor=#333333;" parent="rauAwiYpqjWbTV3UIn7z-81" vertex="1">
          <mxGeometry x="10" y="35" width="90" height="40" as="geometry" />
        </mxCell>
        <mxCell id="rauAwiYpqjWbTV3UIn7z-83" style="edgeStyle=none;rounded=0;orthogonalLoop=1;jettySize=auto;html=1;" parent="rauAwiYpqjWbTV3UIn7z-75" source="rauAwiYpqjWbTV3UIn7z-84" target="rauAwiYpqjWbTV3UIn7z-77" edge="1">
          <mxGeometry relative="1" as="geometry" />
        </mxCell>
        <mxCell id="rauAwiYpqjWbTV3UIn7z-84" value="" style="strokeWidth=3;html=1;shape=mxgraph.flowchart.database;whiteSpace=wrap;fillColor=#f5f5f5;strokeColor=#666666;shadow=0;noLabel=0;labelBackgroundColor=none;labelBorderColor=none;fontColor=#333333;" parent="rauAwiYpqjWbTV3UIn7z-75" vertex="1">
          <mxGeometry x="10" y="72" width="60" height="30" as="geometry" />
        </mxCell>
        <mxCell id="rauAwiYpqjWbTV3UIn7z-85" value="" style="strokeWidth=3;html=1;shape=mxgraph.flowchart.database;whiteSpace=wrap;fillColor=#f5f5f5;strokeColor=#666666;shadow=0;noLabel=0;labelBackgroundColor=none;labelBorderColor=none;fontColor=#333333;" parent="rauAwiYpqjWbTV3UIn7z-75" vertex="1">
          <mxGeometry x="480" y="73" width="60" height="30" as="geometry" />
        </mxCell>
        <mxCell id="rauAwiYpqjWbTV3UIn7z-86" value="" style="edgeStyle=none;rounded=0;orthogonalLoop=1;jettySize=auto;html=1;" parent="rauAwiYpqjWbTV3UIn7z-75" source="rauAwiYpqjWbTV3UIn7z-87" edge="1">
          <mxGeometry relative="1" as="geometry">
            <mxPoint x="340" y="91" as="targetPoint" />
            <Array as="points">
              <mxPoint x="320" y="101" />
            </Array>
          </mxGeometry>
        </mxCell>
        <mxCell id="rauAwiYpqjWbTV3UIn7z-87" value="" style="shape=message;html=1;html=1;outlineConnect=0;labelPosition=center;verticalLabelPosition=bottom;align=center;verticalAlign=top;strokeWidth=2;fillColor=#f5f5f5;strokeColor=#666666;fontColor=#333333;" parent="rauAwiYpqjWbTV3UIn7z-75" vertex="1">
          <mxGeometry x="245" y="92" width="60" height="40" as="geometry" />
        </mxCell>
      </root>
    </mxGraphModel>
  </diagram>
</mxfile>
